<?xml version="1.0" encoding="UTF-8" standalone="no"?>
<!-- Created with Inkscape (http://www.inkscape.org/) -->

<svg
   xmlns:dc="http://purl.org/dc/elements/1.1/"
   xmlns:cc="http://creativecommons.org/ns#"
   xmlns:rdf="http://www.w3.org/1999/02/22-rdf-syntax-ns#"
   xmlns:svg="http://www.w3.org/2000/svg"
   xmlns="http://www.w3.org/2000/svg"
   xmlns:sodipodi="http://sodipodi.sourceforge.net/DTD/sodipodi-0.dtd"
   xmlns:inkscape="http://www.inkscape.org/namespaces/inkscape"
   width="84.838257mm"
   height="84.837952mm"
   viewBox="0 0 300.608 300.60691"
   id="svg2"
   version="1.1"
   inkscape:version="0.91 r13725"
   sodipodi:docname="meter.svg">
  <sodipodi:namedview
     id="base"
     pagecolor="#ffffff"
     bordercolor="#666666"
     borderopacity="0"
     inkscape:pageopacity="0"
     inkscape:pageshadow="2"
     inkscape:zoom="1.0082026"
     inkscape:cx="154.6229"
     inkscape:cy="106.47746"
     inkscape:document-units="px"
     inkscape:current-layer="layer1"
     showgrid="false"
     inkscape:window-width="1440"
     inkscape:window-height="852"
     inkscape:window-x="0"
     inkscape:window-y="0"
     inkscape:window-maximized="1"
     fit-margin-top="0"
     fit-margin-left="0"
     fit-margin-right="0"
     fit-margin-bottom="0"
     showborder="false" />
  <defs
     id="defs4" />
  <metadata
     id="metadata7">
    <rdf:RDF>
      <cc:Work
         rdf:about="">
        <dc:format>image/svg+xml</dc:format>
        <dc:type
           rdf:resource="http://purl.org/dc/dcmitype/StillImage" />
        <dc:title></dc:title>
      </cc:Work>
    </rdf:RDF>
  </metadata>
  <g
     id="layer1"
     inkscape:groupmode="layer"
     inkscape:label="Layer 1"
     transform="translate(-260.69355,-114.87355)">
    <path
       id="path4337"
       title="sin(x)"
       d="m 263.53427,265.20746 c 0.0984,-0.30892 0.19686,-0.61786 0.29529,-0.92679 0.0984,-0.30892 0.19685,-0.61784 0.29529,-0.92675 0.0984,-0.30891 0.19685,-0.6178 0.29528,-0.92667 0.0984,-0.3089 0.19685,-0.61774 0.29528,-0.92658 0.0984,-0.30884 0.19686,-0.61765 0.29528,-0.92643 0.0984,-0.30877 0.19686,-0.61752 0.29529,-0.92623 0.0984,-0.30872 0.19686,-0.61738 0.29528,-0.92603 0.0984,-0.30862 0.19687,-0.61722 0.29529,-0.92576 0.0984,-0.30853 0.19686,-0.61703 0.29529,-0.92546 0.0984,-0.30843 0.19685,-0.61682 0.29528,-0.92515 0.0984,-0.30833 0.19685,-0.61657 0.29529,-0.92478 0.0984,-0.30818 0.19685,-0.6163 0.29527,-0.92436 0.0984,-0.30806 0.19686,-0.61603 0.29529,-0.92392 0.0984,-0.30791 0.19686,-0.61573 0.29528,-0.92347 0.0984,-0.30773 0.19686,-0.61538 0.29529,-0.92294 0.0984,-0.30755 0.19686,-0.61502 0.29528,-0.92238 0.0984,-0.30738 0.19686,-0.61466 0.29529,-0.92182 0.0984,-0.30716 0.19685,-0.61423 0.29529,-0.92118 0.0984,-0.30695 0.19685,-0.6138 0.29528,-0.92052 0.0984,-0.30672 0.19685,-0.61335 0.29528,-0.91984 0.0984,-0.3065 0.19686,-0.61285 0.29528,-0.91911 0.0984,-0.30623 0.19686,-0.61234 0.29529,-0.91831 0.0984,-0.306 0.19686,-0.61184 0.29528,-0.91753 0.0984,-0.30572 0.19686,-0.61127 0.29529,-0.9167 0.0984,-0.30542 0.19686,-0.61069 0.29529,-0.91582 0.0984,-0.30512 0.19685,-0.61008 0.29528,-0.9149 0.0984,-0.3048 0.19685,-0.60945 0.29529,-0.91395 0.0984,-0.30449 0.19685,-0.6088 0.29528,-0.91296 0.0984,-0.30415 0.19685,-0.60813 0.29528,-0.91195 0.0984,-0.3038 0.19686,-0.60742 0.29528,-0.91089 0.0984,-0.30344 0.19687,-0.6067 0.29529,-0.90978 0.0984,-0.30308 0.19686,-0.60597 0.29529,-0.90867 0.0984,-0.30269 0.19686,-0.6052 0.29528,-0.9075 0.0984,-0.3023 0.19685,-0.60441 0.29529,-0.90631 0.0984,-0.30188 0.19685,-0.60358 0.29528,-0.90505 0.0984,-0.30146 0.19685,-0.60274 0.29528,-0.90378 0.0984,-0.30105 0.19686,-0.60187 0.29528,-0.90248 0.0984,-0.30061 0.19686,-0.60099 0.29529,-0.90113 0.0984,-0.30016 0.19686,-0.60008 0.29528,-0.89976 0.0984,-0.29969 0.19687,-0.59914 0.29529,-0.89835 0.0984,-0.2992 0.19686,-0.59816 0.29529,-0.89689 0.0984,-0.2987 0.19685,-0.59718 0.29528,-0.8954 0.0984,-0.2982 0.19685,-0.59618 0.29529,-0.89388 0.0984,-0.2977 0.19685,-0.59514 0.29528,-0.89232 0.0984,-0.29716 0.19685,-0.59409 0.29528,-0.89073 0.0984,-0.29664 0.19686,-0.59302 0.29529,-0.88911 0.0984,-0.29608 0.19686,-0.59189 0.29528,-0.88743 0.0984,-0.29553 0.19686,-0.59077 0.29529,-0.88574 0.0984,-0.29495 0.19686,-0.58961 0.29528,-0.88401 0.0984,-0.29438 0.19686,-0.58846 0.29529,-0.88224 0.0984,-0.29378 0.19685,-0.58726 0.29528,-0.88044 0.0984,-0.29318 0.19685,-0.58604 0.29529,-0.87859 0.0984,-0.29256 0.19685,-0.5848 0.29527,-0.87673 0.0984,-0.29193 0.19687,-0.58353 0.29529,-0.87482 0.0984,-0.29128 0.19686,-0.58226 0.29529,-0.87288 0.0984,-0.29063 0.19686,-0.58093 0.29528,-0.8709 0.0984,-0.28996 0.19686,-0.5796 0.29529,-0.86889 0.0984,-0.28929 0.19686,-0.57824 0.29528,-0.86684 0.0984,-0.28861 0.19685,-0.57685 0.29529,-0.86477 0.0984,-0.28791 0.19685,-0.57545 0.29528,-0.86266 0.0984,-0.2872 0.19685,-0.57402 0.29528,-0.8605 0.0984,-0.28645 0.19686,-0.57257 0.29529,-0.85831 0.0984,-0.28575 0.19686,-0.57111 0.29528,-0.85612 0.0984,-0.28498 0.19686,-0.56961 0.29529,-0.85386 0.0984,-0.28423 0.19686,-0.56809 0.29528,-0.85155 0.0984,-0.28349 0.19686,-0.56657 0.29529,-0.84927 0.0984,-0.28269 0.19685,-0.56501 0.29528,-0.84689 0.0984,-0.28191 0.19686,-0.56342 0.29529,-0.84453 0.0984,-0.28111 0.19685,-0.56181 0.29528,-0.84211 0.0984,-0.2803 0.19686,-0.56019 0.29528,-0.83965 0.0984,-0.27947 0.19686,-0.55853 0.29529,-0.83716 0.0984,-0.27864 0.19686,-0.55687 0.29528,-0.83466 0.0984,-0.2778 0.19686,-0.55517 0.29529,-0.83209 0.0984,-0.27694 0.19686,-0.55346 0.29528,-0.82952 0.0984,-0.27607 0.19686,-0.55171 0.29529,-0.82691 0.0984,-0.27519 0.19685,-0.54994 0.29529,-0.82425 0.0984,-0.2743 0.19685,-0.54816 0.29527,-0.82157 0.0984,-0.2734 0.19686,-0.54635 0.29529,-0.81886 0.0984,-0.27249 0.19686,-0.54453 0.29528,-0.81611 0.0984,-0.27156 0.19686,-0.54268 0.29529,-0.81332 0.0984,-0.27065 0.19686,-0.54082 0.29528,-0.81052 0.0984,-0.26971 0.19686,-0.53894 0.29529,-0.80767 0.0984,-0.26876 0.19685,-0.53704 0.29529,-0.80483 0.0984,-0.26779 0.19685,-0.53508 0.29528,-0.80189 0.0984,-0.2668 0.19685,-0.53313 0.29528,-0.79896 0.0984,-0.26582 0.19686,-0.53115 0.29528,-0.79598 0.0984,-0.26483 0.19686,-0.52916 0.29529,-0.79298 0.0984,-0.26384 0.19686,-0.52716 0.29528,-0.78997 0.0984,-0.2628 0.19687,-0.52509 0.29529,-0.78689 0.0984,-0.26179 0.19686,-0.52305 0.29529,-0.78379 0.0984,-0.26075 0.19685,-0.52098 0.29528,-0.78068 0.0984,-0.25969 0.19685,-0.51887 0.29529,-0.77751 0.0984,-0.25863 0.19685,-0.51674 0.29528,-0.77433 0.0984,-0.25757 0.19685,-0.5146 0.29528,-0.7711 0.0984,-0.2565 0.19686,-0.51245 0.29528,-0.76785 0.0984,-0.25541 0.19686,-0.51027 0.29529,-0.76457 0.0984,-0.25432 0.19686,-0.50807 0.29528,-0.76129 0.0984,-0.25319 0.19687,-0.50584 0.29529,-0.75793 0.0984,-0.25207 0.19686,-0.50359 0.29529,-0.75455 0.0984,-0.25096 0.19685,-0.50135 0.29528,-0.75116 0.0984,-0.24981 0.19685,-0.49906 0.29529,-0.74773 0.0984,-0.24866 0.19685,-0.49677 0.29527,-0.74427 0.0984,-0.24751 0.19686,-0.49445 0.29529,-0.74078 0.0984,-0.24634 0.19686,-0.4921 0.29528,-0.73726 0.0984,-0.24518 0.19686,-0.48974 0.29529,-0.73373 0.0984,-0.24398 0.19686,-0.48735 0.29529,-0.73014 0.0984,-0.24278 0.19685,-0.48496 0.29528,-0.72654 0.0984,-0.24157 0.19685,-0.48255 0.29529,-0.72291 0.0984,-0.24035 0.19685,-0.48011 0.29528,-0.71924 0.0984,-0.23914 0.19685,-0.47766 0.29528,-0.71556 0.0984,-0.23789 0.19686,-0.47519 0.29528,-0.71183 0.0984,-0.23666 0.19687,-0.47269 0.29529,-0.70808 0.0984,-0.23541 0.19686,-0.47017 0.29529,-0.70431 0.0984,-0.23415 0.19686,-0.46766 0.29528,-0.70052 0.0984,-0.23286 0.19686,-0.4651 0.29529,-0.69669 0.0984,-0.23157 0.19685,-0.46253 0.29528,-0.69282 0.0984,-0.23029 0.19685,-0.45994 0.29529,-0.68893 0.0984,-0.229 0.19685,-0.45734 0.29527,-0.68502 0.0984,-0.22769 0.19686,-0.45472 0.29529,-0.68109 0.0984,-0.22636 0.19686,-0.45208 0.29528,-0.67711 0.0984,-0.22506 0.19687,-0.44943 0.29529,-0.67313 0.0984,-0.22371 0.19686,-0.44675 0.29529,-0.66911 0.0984,-0.22236 0.19686,-0.44405 0.29528,-0.66506 0.0984,-0.22101 0.19685,-0.44134 0.29529,-0.66099 0.0984,-0.21964 0.19685,-0.4386 0.29528,-0.65688 0.0984,-0.21826 0.19685,-0.43585 0.29528,-0.65274 0.0984,-0.21691 0.19686,-0.43311 0.29529,-0.64862 0.0984,-0.21551 0.19686,-0.43032 0.29528,-0.64444 0.0984,-0.2141 0.19686,-0.42754 0.29529,-0.64023 0.0984,-0.21271 0.19686,-0.42471 0.29528,-0.63601 0.0984,-0.21129 0.19686,-0.42188 0.29529,-0.63175 0.0984,-0.20987 0.19685,-0.41903 0.29528,-0.62747 0.0984,-0.20844 0.19685,-0.41617 0.29529,-0.62318 0.0984,-0.207 0.19685,-0.41329 0.29528,-0.61884 0.0984,-0.20556 0.19686,-0.41039 0.29528,-0.6145 0.0984,-0.2041 0.19686,-0.40747 0.29529,-0.61011 0.0984,-0.20263 0.19686,-0.40455 0.29528,-0.60572 0.0984,-0.20116 0.19686,-0.40161 0.29529,-0.6013 0.0984,-0.19968 0.19686,-0.39863 0.29528,-0.59684 0.0984,-0.1982 0.19686,-0.39566 0.29529,-0.59237 0.0984,-0.19672 0.19685,-0.39268 0.29529,-0.58788 0.0984,-0.19522 0.19685,-0.38967 0.29528,-0.58336 0.0984,-0.19372 0.19685,-0.38665 0.29528,-0.57883 0.0984,-0.1922 0.19686,-0.38361 0.29528,-0.57427 0.0984,-0.19064 0.19686,-0.38054 0.29529,-0.56967 0.0984,-0.18912 0.19686,-0.37749 0.29528,-0.56506 0.0984,-0.18758 0.19686,-0.37439 0.29529,-0.56042 0.0984,-0.18605 0.19685,-0.37129 0.29529,-0.55578 0.0984,-0.18449 0.19685,-0.36819 0.29528,-0.55111 0.0984,-0.18292 0.19685,-0.36505 0.29529,-0.5464 0.0984,-0.18135 0.19685,-0.36192 0.29527,-0.54169 0.0984,-0.17976 0.19686,-0.35876 0.29529,-0.53694 0.0984,-0.1782 0.19686,-0.35559 0.29528,-0.53219 0.0984,-0.1766 0.19686,-0.3524 0.29529,-0.5274 0.0984,-0.17499 0.19686,-0.3492 0.29528,-0.52259 0.0984,-0.17339 0.19686,-0.34599 0.29529,-0.51778 0.0984,-0.17178 0.19685,-0.34276 0.29529,-0.51292 0.0984,-0.17017 0.19685,-0.33953 0.29528,-0.50808 0.0984,-0.16853 0.19685,-0.33626 0.29528,-0.50317 0.0984,-0.16691 0.19686,-0.333 0.29528,-0.49826 0.0984,-0.16528 0.19686,-0.32973 0.29529,-0.49337 0.0984,-0.16361 0.19686,-0.32642 0.29528,-0.48839 0.0984,-0.16198 0.19686,-0.32312 0.29529,-0.48344 0.0984,-0.16032 0.19686,-0.3198 0.29529,-0.47845 0.0984,-0.15867 0.19685,-0.31648 0.29528,-0.47346 0.0984,-0.157 0.19685,-0.31313 0.29529,-0.46845 0.0984,-0.1553 0.19685,-0.30977 0.29527,-0.46339 0.0984,-0.15362 0.19686,-0.30642 0.29529,-0.45835 0.0984,-0.15193 0.19686,-0.30302 0.29528,-0.45326 0.0984,-0.15023 0.19687,-0.29962 0.29529,-0.44817 0.0984,-0.14854 0.19686,-0.29623 0.29529,-0.44305 0.0984,-0.14684 0.19686,-0.29282 0.29528,-0.43793 0.0984,-0.14513 0.19685,-0.28939 0.29529,-0.43279 0.0984,-0.14341 0.19685,-0.28594 0.29528,-0.42762 0.0984,-0.14168 0.19685,-0.2825 0.29528,-0.42244 0.0984,-0.13996 0.19686,-0.27904 0.29528,-0.41726 0.0984,-0.1382 0.19686,-0.27556 0.29529,-0.41202 0.0984,-0.13648 0.19686,-0.27207 0.29528,-0.40681 0.0984,-0.13472 0.19687,-0.26858 0.29529,-0.40156 0.0984,-0.13297 0.19686,-0.26507 0.29529,-0.3963 0.0984,-0.13121 0.19685,-0.26155 0.29528,-0.39102 0.0984,-0.12945 0.19685,-0.25802 0.29529,-0.38572 0.0984,-0.12769 0.19685,-0.25448 0.29528,-0.38041 0.0984,-0.12592 0.19685,-0.25096 0.29528,-0.37512 0.0984,-0.12412 0.19686,-0.24737 0.29528,-0.36975 0.0984,-0.12236 0.19686,-0.24382 0.29529,-0.3644 0.0984,-0.12057 0.19686,-0.24026 0.29529,-0.35904 0.0984,-0.11878 0.19686,-0.23667 0.29528,-0.35365 0.0984,-0.11699 0.19685,-0.23309 0.29529,-0.34826 0.0984,-0.11519 0.19685,-0.22948 0.29528,-0.34286 0.0984,-0.11339 0.19685,-0.22587 0.29529,-0.33744 0.0984,-0.11156 0.19685,-0.22224 0.29527,-0.33199 0.0984,-0.10977 0.19687,-0.2186 0.29529,-0.32655 0.0984,-0.10793 0.19686,-0.21496 0.29529,-0.32109 0.0984,-0.10612 0.19686,-0.21131 0.29528,-0.31561 0.0984,-0.1043 0.19686,-0.20766 0.29529,-0.31013 0.0984,-0.10246 0.19685,-0.20401 0.29528,-0.30463 0.0984,-0.10062 0.19685,-0.20032 0.29529,-0.29912 0.0984,-0.0987 0.19685,-0.19664 0.29528,-0.29358 0.0984,-0.097 0.19685,-0.19296 0.29528,-0.28806 0.0984,-0.0951 0.19686,-0.18926 0.29528,-0.28251 0.0984,-0.0932 0.19687,-0.18556 0.29529,-0.27696 0.0984,-0.0914 0.19686,-0.18184 0.29528,-0.27138 0.0984,-0.0895 0.19688,-0.17815 0.29529,-0.26582 0.0984,-0.0876 0.19686,-0.17439 0.29529,-0.2602 0.0984,-0.0858 0.19686,-0.17068 0.29528,-0.25463 0.0984,-0.0839 0.19686,-0.16694 0.29529,-0.249 0.0984,-0.082 0.19684,-0.1632 0.29528,-0.2434 0.0984,-0.0802 0.19685,-0.15944 0.29528,-0.23775 0.0984,-0.0782 0.19685,-0.15569 0.29529,-0.23212 0.0984,-0.0765 0.19685,-0.15192 0.29527,-0.22648 0.0984,-0.0745 0.19686,-0.14815 0.29529,-0.22082 0.0984,-0.0727 0.19687,-0.14437 0.29529,-0.21514 0.0984,-0.0709 0.19686,-0.1406 0.29529,-0.20948 0.0984,-0.0688 0.19686,-0.13682 0.29528,-0.20379 0.0984,-0.0669 0.19686,-0.13302 0.29528,-0.19811 0.0984,-0.0651 0.19686,-0.12923 0.29529,-0.19241 0.0984,-0.0632 0.19685,-0.12541 0.29528,-0.1867 0.0984,-0.0612 0.19686,-0.1216 0.29529,-0.18099 0.0984,-0.0593 0.19685,-0.11779 0.29528,-0.17525 0.0984,-0.0576 0.19685,-0.114 0.29529,-0.16954 0.0984,-0.0556 0.19685,-0.11017 0.29529,-0.16381 0.0984,-0.0536 0.19684,-0.10633 0.29528,-0.15808 0.0984,-0.0517 0.19685,-0.10249 0.29528,-0.15231 0.0984,-0.0498 0.19686,-0.0987 0.29527,-0.14656 0.0985,-0.0479 0.19687,-0.0948 0.29529,-0.14081 0.0984,-0.046 0.19687,-0.091 0.29529,-0.13505 0.0984,-0.044 0.19685,-0.0871 0.29529,-0.12927 0.0984,-0.0422 0.19686,-0.0832 0.29528,-0.12348 0.0984,-0.0402 0.19685,-0.0795 0.2953,-0.11773 0.0984,-0.0383 0.19683,-0.0756 0.29527,-0.11194 0.0984,-0.0362 0.19685,-0.0718 0.29529,-0.10615 0.0984,-0.0344 0.19684,-0.0678 0.29528,-0.10034 0.0984,-0.0324 0.19686,-0.064 0.29528,-0.0946 0.0984,-0.0306 0.19686,-0.0601 0.29528,-0.0887 0.0984,-0.0286 0.19687,-0.0563 0.29528,-0.0829 0.0984,-0.0268 0.19687,-0.0524 0.2953,-0.0772 0.0984,-0.0248 0.19685,-0.0485 0.29528,-0.0713 0.0984,-0.0228 0.19686,-0.0446 0.29529,-0.0655 0.0984,-0.0209 0.19685,-0.0407 0.29528,-0.0597 0.0984,-0.0189 0.19686,-0.0369 0.29528,-0.0538 0.0984,-0.017 0.19686,-0.033 0.29529,-0.0481 0.0984,-0.015 0.19686,-0.0291 0.29528,-0.0422 0.0984,-0.0131 0.19686,-0.0253 0.29529,-0.0363 0.0984,-0.0111 0.19686,-0.0214 0.29528,-0.0306 0.0984,-0.009 0.19686,-0.0175 0.29528,-0.0248 0.0984,-0.007 0.19685,-0.0137 0.29529,-0.0189 0.0984,-0.005 0.19687,-0.01 0.29529,-0.0131 0.0984,-0.004 0.19685,-0.006 0.29528,-0.007 0.0984,-9e-4 0.19686,-0.002 0.29528,-9e-4 0.0984,5e-4 0.19686,0.002 0.2953,0.004 0.0984,0.002 0.19685,0.006 0.29527,0.0102 0.0984,0.004 0.19687,0.01 0.29529,0.016 0.0984,0.007 0.19685,0.0137 0.29528,0.0219 0.0984,0.008 0.19685,0.0175 0.29528,0.0278 0.0984,0.0102 0.19685,0.0214 0.2953,0.0336 0.0984,0.0122 0.19685,0.0252 0.29528,0.0393 0.0984,0.014 0.19686,0.0291 0.29528,0.0451 0.0984,0.016 0.19686,0.033 0.29528,0.051 0.0984,0.018 0.19686,0.0369 0.29529,0.0568 0.0984,0.0199 0.19686,0.0407 0.29529,0.0627 0.0984,0.0219 0.19685,0.0446 0.29527,0.0684 0.0984,0.0238 0.19686,0.0485 0.29529,0.0742 0.0984,0.0258 0.19686,0.0525 0.29528,0.0801 0.0984,0.0276 0.19686,0.0563 0.29529,0.0859 0.0984,0.0296 0.19686,0.0601 0.29529,0.0916 0.0984,0.0316 0.19685,0.064 0.29529,0.0975 0.0984,0.0335 0.19686,0.0678 0.29528,0.10325 0.0984,0.0353 0.19685,0.0718 0.29527,0.10905 0.0984,0.0373 0.19686,0.0756 0.29529,0.11481 0.0984,0.0392 0.19685,0.0794 0.29529,0.12062 0.0984,0.0412 0.19684,0.0832 0.29528,0.12638 0.0984,0.0432 0.19686,0.0872 0.29528,0.13216 0.0984,0.045 0.19686,0.091 0.29529,0.13793 0.0984,0.0469 0.19687,0.0948 0.29528,0.14369 0.0984,0.0488 0.19687,0.0987 0.2953,0.14944 0.0984,0.0508 0.19684,0.1025 0.29528,0.15519 0.0984,0.0527 0.19686,0.10633 0.29528,0.16093 0.0984,0.0546 0.19685,0.11016 0.29529,0.16668 0.0984,0.0565 0.19684,0.11398 0.29529,0.17241 0.0984,0.0584 0.19683,0.11779 0.29527,0.17813 0.0984,0.0603 0.19686,0.12162 0.29528,0.18384 0.0984,0.0622 0.19687,0.12542 0.29529,0.18956 0.0984,0.0641 0.19687,0.12921 0.29528,0.19524 0.0984,0.0659 0.19687,0.13303 0.29529,0.20095 0.0984,0.0679 0.19686,0.13683 0.29529,0.20664 0.0984,0.0698 0.19686,0.1406 0.29528,0.21232 0.0984,0.0718 0.19686,0.14438 0.29529,0.21798 0.0984,0.0737 0.19684,0.14816 0.29528,0.22365 0.0984,0.0755 0.19684,0.15193 0.29529,0.2293 0.0984,0.0774 0.19684,0.1557 0.29528,0.23494 0.0984,0.0793 0.19686,0.15945 0.29528,0.24058 0.0984,0.0811 0.19686,0.16319 0.29528,0.24619 0.0984,0.083 0.19687,0.16695 0.29528,0.25182 0.0985,0.0849 0.19687,0.17067 0.2953,0.25741 0.0984,0.0868 0.19685,0.17442 0.29528,0.26304 0.0984,0.0885 0.19686,0.17812 0.29529,0.26859 0.0984,0.0904 0.19686,0.18184 0.29527,0.27415 0.0984,0.0923 0.19686,0.18558 0.29529,0.27974 0.0984,0.0942 0.19685,0.18929 0.29529,0.28531 0.0984,0.096 0.19685,0.19294 0.29529,0.29082 0.0984,0.0978 0.19685,0.19665 0.29528,0.29634 0.0984,0.0997 0.19686,0.20034 0.29528,0.30187 0.0984,0.10155 0.19685,0.204 0.29528,0.30739 0.0984,0.10337 0.19686,0.20767 0.29529,0.31287 0.0984,0.1052 0.19685,0.21131 0.29528,0.31834 0.0984,0.10703 0.19687,0.21498 0.29528,0.32384 0.0984,0.10884 0.19687,0.21859 0.29528,0.32927 0.0984,0.11065 0.19686,0.22224 0.2953,0.33471 0.0984,0.11248 0.19686,0.22585 0.29529,0.34014 0.0984,0.11429 0.19685,0.22949 0.29529,0.34557 0.0984,0.11608 0.19684,0.23307 0.29528,0.35096 0.0984,0.11788 0.19684,0.23668 0.29528,0.35635 0.0984,0.11969 0.19685,0.24025 0.29528,0.36172 0.0984,0.12147 0.19685,0.24383 0.29528,0.36708 0.0984,0.12326 0.19685,0.2474 0.29528,0.37243 0.0984,0.12504 0.19687,0.25095 0.29528,0.37777 0.0984,0.12679 0.19687,0.25449 0.2953,0.38306 0.0984,0.12859 0.19686,0.25806 0.29529,0.38839 0.0984,0.13034 0.19684,0.26155 0.29529,0.39365 0.0984,0.13212 0.19685,0.26507 0.29528,0.39893 0.0984,0.13386 0.19685,0.26859 0.29528,0.40419 0.0984,0.1356 0.19685,0.27207 0.29527,0.40941 0.0984,0.13735 0.19686,0.27557 0.29529,0.41464 0.0984,0.1391 0.19685,0.27903 0.29529,0.41985 0.0984,0.14082 0.19686,0.2825 0.29528,0.42504 0.0984,0.14254 0.19687,0.28595 0.29529,0.43021 0.0984,0.14427 0.19686,0.28937 0.29528,0.43535 0.0984,0.14598 0.19686,0.29283 0.2953,0.4405 0.0984,0.14768 0.19684,0.29622 0.29527,0.44561 0.0984,0.14939 0.19686,0.29963 0.29528,0.45073 0.0984,0.15108 0.19686,0.30302 0.29529,0.4558 0.0984,0.15279 0.19686,0.30641 0.29527,0.46087 0.0984,0.15448 0.19687,0.30978 0.2953,0.46592 0.0984,0.15615 0.19685,0.31313 0.29528,0.47096 0.0984,0.15782 0.19686,0.31646 0.2953,0.47596 0.0984,0.15948 0.19685,0.3198 0.29528,0.48094 0.0984,0.16114 0.19685,0.32313 0.29528,0.48592 0.0984,0.16281 0.19685,0.32644 0.29528,0.49089 0.0984,0.16444 0.19685,0.32972 0.29528,0.4958 0.0984,0.16611 0.19686,0.33301 0.29529,0.50074 0.0984,0.16772 0.19686,0.33626 0.29528,0.50561 0.0984,0.16935 0.19686,0.33953 0.29528,0.51051 0.0984,0.17098 0.19687,0.34276 0.29529,0.51536 0.0984,0.1726 0.19686,0.34598 0.2953,0.52018 0.0984,0.1742 0.19685,0.34921 0.29528,0.525 0.0984,0.1758 0.19685,0.35241 0.29527,0.52979 0.0984,0.1774 0.19686,0.35559 0.29529,0.53458 0.0984,0.17897 0.19686,0.35875 0.29529,0.53932 0.0984,0.18054 0.19684,0.3619 0.29528,0.54404 0.0984,0.18214 0.19686,0.36506 0.29528,0.54874 0.0984,0.18371 0.19686,0.3682 0.29529,0.55346 0.0984,0.18527 0.19685,0.37129 0.29528,0.5581 0.0984,0.18682 0.19686,0.37439 0.29529,0.56276 0.0984,0.18836 0.19685,0.37747 0.29528,0.56736 0.0984,0.18989 0.19687,0.38056 0.29528,0.57197 0.0984,0.19144 0.19687,0.38361 0.29529,0.57654 0.0984,0.19294 0.19686,0.38664 0.29528,0.58109 0.0984,0.19447 0.19686,0.38968 0.2953,0.58564 0.0984,0.19596 0.19685,0.39267 0.29528,0.59013 0.0984,0.19746 0.19684,0.39566 0.29528,0.59462 0.0984,0.19894 0.19684,0.39864 0.29529,0.59907 0.0984,0.20044 0.19685,0.4016 0.29528,0.60351 0.0984,0.2019 0.19685,0.40455 0.29528,0.60791 0.0984,0.20338 0.19687,0.40749 0.29528,0.61231 0.0984,0.20484 0.19687,0.41041 0.29529,0.61668 0.0984,0.20629 0.19687,0.41328 0.29528,0.62101 0.0984,0.20772 0.19687,0.41616 0.2953,0.62531 0.0984,0.20918 0.19684,0.41904 0.29528,0.62963 0.0984,0.21058 0.19684,0.42188 0.29528,0.63388 0.0984,0.21202 0.19685,0.42472 0.29529,0.63811 0.0984,0.21343 0.19685,0.42753 0.29528,0.64235 0.0984,0.2148 0.19685,0.43031 0.29528,0.64653 0.0984,0.2162 0.19686,0.4331 0.29528,0.65068 0.0984,0.21759 0.19687,0.43588 0.29529,0.65483 0.0984,0.21896 0.19687,0.43862 0.29528,0.65893 0.0984,0.22034 0.19686,0.44135 0.29528,0.66305 0.0984,0.22168 0.19686,0.44404 0.2953,0.66707 0.0984,0.22304 0.19685,0.44674 0.29528,0.67112 0.0984,0.22438 0.19686,0.44942 0.29529,0.67512 0.0984,0.22571 0.19685,0.45207 0.29528,0.6791 0.0984,0.22704 0.19685,0.45473 0.29529,0.68306 0.0984,0.22834 0.19685,0.45734 0.29529,0.68699 0.0984,0.22964 0.19684,0.45994 0.29527,0.69088 0.0984,0.23094 0.19686,0.46253 0.29528,0.69474 0.0984,0.23224 0.19686,0.46512 0.29528,0.69861 0.0985,0.2335 0.19686,0.46764 0.29529,0.70241 0.0984,0.23478 0.19686,0.47017 0.29528,0.70621 0.0984,0.23604 0.19687,0.47269 0.2953,0.70997 0.0984,0.23729 0.19687,0.47518 0.29528,0.7137 0.0984,0.23851 0.19686,0.47765 0.29529,0.7174 0.0984,0.23973 0.19685,0.48011 0.29528,0.72107 0.0984,0.24097 0.19685,0.48254 0.29529,0.72474 0.0984,0.24218 0.19684,0.48496 0.29528,0.72834 0.0984,0.24338 0.19685,0.48735 0.29528,0.73193 0.0984,0.24458 0.19685,0.48975 0.29528,0.7355 0.0984,0.24576 0.19686,0.49209 0.29528,0.73902 0.0985,0.24693 0.19687,0.49445 0.2953,0.74254 0.0984,0.24808 0.19686,0.49677 0.29528,0.746 0.0984,0.24924 0.19687,0.49906 0.29528,0.74944 0.0984,0.25039 0.19686,0.50136 0.29529,0.75288 0.0984,0.25152 0.19685,0.50361 0.29529,0.75624 0.0984,0.25265 0.19684,0.50585 0.29528,0.7596 0.0984,0.25376 0.19685,0.50807 0.29528,0.76293 0.0984,0.25487 0.19685,0.51027 0.29528,0.76622 0.0984,0.25595 0.19686,0.51246 0.29529,0.7695 0.0984,0.25703 0.19686,0.5146 0.29529,0.77271 0.0984,0.25811 0.19685,0.51675 0.29528,0.77593 0.0984,0.25917 0.19686,0.51886 0.29528,0.7791 0.0984,0.2602 0.19686,0.52095 0.29529,0.78223 0.0984,0.26125 0.19685,0.52304 0.29528,0.78534 0.0984,0.2623 0.19685,0.52511 0.29529,0.78844 0.0984,0.26332 0.19685,0.52713 0.29528,0.79146 0.0984,0.26432 0.19686,0.52916 0.29528,0.7945 0.0984,0.26532 0.19687,0.53115 0.29529,0.79747 0.0984,0.26632 0.19686,0.53313 0.29528,0.80044 0.0984,0.2673 0.19686,0.53508 0.2953,0.80335 0.0984,0.26826 0.19684,0.53702 0.29528,0.80625 0.0984,0.26922 0.19685,0.53892 0.29528,0.8091 0.0984,0.27018 0.19686,0.54082 0.29528,0.81193 0.0984,0.27111 0.19685,0.54269 0.29528,0.81472 0.0984,0.27204 0.19686,0.54453 0.29529,0.81748 0.0984,0.27296 0.19685,0.54638 0.29528,0.82023 0.0984,0.27386 0.19687,0.54816 0.29529,0.82292 0.0984,0.27475 0.19686,0.54994 0.29528,0.82557 0.0984,0.27563 0.19686,0.55171 0.29529,0.82822 0.0984,0.2765 0.19685,0.55343 0.29529,0.83082 0.0984,0.27735 0.19684,0.55514 0.29528,0.83337 0.0984,0.27822 0.19686,0.55686 0.29528,0.83592 0.0984,0.27905 0.19686,0.55852 0.29528,0.8384 0.0984,0.27989 0.19685,0.56019 0.29528,0.8409 0.0984,0.28069 0.19686,0.5618 0.29529,0.84329 0.0984,0.28151 0.19686,0.56343 0.2953,0.84573 0.0984,0.28229 0.19685,0.56501 0.29527,0.84809 0.0984,0.28308 0.19686,0.56655 0.29529,0.85043 0.0984,0.28386 0.19686,0.56808 0.29528,0.8527 0.0984,0.28463 0.19686,0.56961 0.29529,0.85499 0.0984,0.28537 0.19685,0.57112 0.29528,0.85723 0.0984,0.28609 0.19686,0.57256 0.29528,0.85941 0.0984,0.28682 0.19686,0.57402 0.29529,0.86158 0.0984,0.28754 0.19685,0.57545 0.2953,0.86371 0.0984,0.28825 0.19684,0.57687 0.29528,0.8658 0.0984,0.28897 0.19685,0.57825 0.29528,0.86788 0.0984,0.28963 0.19685,0.5796 0.29528,0.8699 0.0984,0.29029 0.19686,0.58093 0.29528,0.87189 0.0984,0.29095 0.19686,0.58224 0.29528,0.87385 0.0984,0.29161 0.19686,0.58354 0.29529,0.87579 0.0984,0.29223 0.19687,0.58478 0.29528,0.87766 0.0984,0.29286 0.19687,0.58603 0.29529,0.87952 0.0984,0.29348 0.19686,0.58726 0.29529,0.88134 0.0984,0.29409 0.19685,0.58847 0.2953,0.88313 0.0984,0.29466 0.19683,0.58964 0.29527,0.88489 0.0984,0.29525 0.19685,0.59078 0.29528,0.88659 0.0984,0.29582 0.19685,0.59192 0.29528,0.88828 0.0984,0.29636 0.19686,0.59301 0.29527,0.88992 0.0984,0.29691 0.19687,0.59409 0.2953,0.89153 0.0984,0.29743 0.19686,0.59515 0.29528,0.8931 0.0984,0.29796 0.19687,0.59619 0.29529,0.89466 0.0984,0.29845 0.19687,0.59718 0.29529,0.89613 0.0984,0.29897 0.19686,0.59818 0.29529,0.89763 0.0984,0.29944 0.19685,0.59913 0.29528,0.89904 0.0984,0.29992 0.19684,0.60008 0.29528,0.90046 0.0984,0.30038 0.19685,0.60098 0.29529,0.90181 0.0984,0.30081 0.19685,0.60188 0.29528,0.90313 0.0984,0.30126 0.19685,0.60275 0.29527,0.90444 0.0984,0.30167 0.19687,0.60358 0.29529,0.90568 0.0984,0.30209 0.19686,0.6044 0.29529,0.90689 0.0984,0.3025 0.19687,0.60521 0.29529,0.90809 0.0984,0.30289 0.19686,0.60598 0.29528,0.90923 0.0984,0.30327 0.19686,0.60672 0.29528,0.91036 0.0984,0.30362 0.19687,0.60743 0.29529,0.91141 0.0984,0.304 0.19685,0.60815 0.29529,0.91247 0.0984,0.30433 0.19685,0.60881 0.29528,0.91346 0.0984,0.30465 0.19685,0.60946 0.29529,0.91442 0.0984,0.30498 0.19684,0.6101 0.29527,0.91536 0.0984,0.30529 0.19685,0.6107 0.29529,0.91627 0.0984,0.30556 0.19685,0.61126 0.29529,0.9171 0.0984,0.30584 0.19686,0.61182 0.29527,0.91794 0.0984,0.30612 0.19687,0.61236 0.29529,0.91872 0.0984,0.30637 0.19687,0.61287 0.29529,0.91948 0.0984,0.3066 0.19686,0.61333 0.29529,0.92017 0.0984,0.30684 0.19686,0.61381 0.29528,0.92086 0.0984,0.30706 0.19685,0.61424 0.29529,0.92151 0.0984,0.30728 0.19684,0.61464 0.29528,0.9221 0.0984,0.30747 0.19684,0.61502 0.29528,0.92268 0.0984,0.30764 0.19685,0.61537 0.29529,0.9232 0.0984,0.30781 0.19686,0.61572 0.29528,0.9237 0.0984,0.30797 0.19686,0.61602 0.29528,0.92415 0.0984,0.30813 0.19687,0.61632 0.29528,0.92458 0.0984,0.30826 0.19687,0.61658 0.2953,0.92497 0.0984,0.30836 0.19685,0.61681 0.29528,0.9253 0.0984,0.30848 0.19685,0.61703 0.29528,0.92562 0.0984,0.30859 0.19685,0.61723 0.29529,0.9259 0.0984,0.30866 0.19685,0.61738 0.29528,0.92612 0.0984,0.30875 0.19686,0.61754 0.29529,0.92634 0.0984,0.30882 0.19686,0.61765 0.29528,0.92651 0.0984,0.30884 0.19686,0.61773 0.29529,0.92662 0.0984,0.30889 0.19686,0.6178 0.29528,0.92672 0.0984,0.30892 0.19686,0.61785 0.29528,0.92677 0.0984,0.30892 0.19685,0.61786 0.29529,0.9268 0.0984,0.30892 0.19685,0.61785 0.29528,0.92676 0.0984,0.30893 0.19685,0.61785 0.29528,0.92673 0.0984,0.30891 0.19687,0.61777 0.29529,0.92663 0.0984,0.30886 0.19686,0.61769 0.29529,0.9265 0.0984,0.30881 0.19686,0.61759 0.29528,0.92633 0.0984,0.30875 0.19686,0.61747 0.29528,0.92615 0.0984,0.30867 0.19687,0.61731 0.29529,0.92589 0.0984,0.30859 0.19685,0.61713 0.29528,0.92562 0.0984,0.30849 0.19685,0.61693 0.29529,0.9253 0.0984,0.3084 0.19685,0.61671 0.29528,0.92496 0.0984,0.30827 0.19685,0.61646 0.29529,0.92458 0.0984,0.30813 0.19686,0.61618 0.29528,0.92416 0.0984,0.30798 0.19686,0.61587 0.29529,0.9237 0.0984,0.30781 0.19685,0.61555 0.29528,0.92321 0.0984,0.30764 0.19686,0.61519 0.29528,0.92266 0.0984,0.30747 0.19686,0.61484 0.29529,0.92211 0.0984,0.30727 0.19686,0.61444 0.29528,0.92149 0.0984,0.30707 0.19686,0.61403 0.29529,0.92087 0.0984,0.30684 0.19686,0.61358 0.29527,0.92019 0.0984,0.3066 0.19686,0.6131 0.2953,0.91946 0.0984,0.30637 0.19687,0.61261 0.29529,0.91873 0.0984,0.30611 0.19686,0.61209 0.29528,0.91793 0.0984,0.30585 0.19685,0.61155 0.29528,0.91712 0.0984,0.30556 0.19685,0.61098 0.29529,0.91625 0.0984,0.30527 0.19684,0.61039 0.29529,0.91537 0.0984,0.30495 0.19685,0.60977 0.29527,0.91443 0.0984,0.30464 0.19686,0.60913 0.29528,0.91346 0.0984,0.30431 0.19687,0.60847 0.29528,0.91245 0.0984,0.30397 0.19687,0.60779 0.2953,0.91143 0.0984,0.30361 0.19686,0.60708 0.29529,0.91033 0.0984,0.30327 0.19686,0.60635 0.29528,0.90924 0.0984,0.30289 0.19685,0.60559 0.29529,0.90809 0.0984,0.30249 0.19684,0.6048 0.29528,0.9069 0.0984,0.30209 0.19684,0.60399 0.29529,0.90568 0.0984,0.30169 0.19684,0.60316 0.29527,0.90444 0.0984,0.30126 0.19686,0.6023 0.29528,0.90313 0.0984,0.30082 0.19686,0.60144 0.29528,0.90181 0.0984,0.30037 0.19687,0.60054 0.29529,0.90045 0.0984,0.29991 0.19687,0.59961 0.2953,0.89906 0.0984,0.29944 0.19685,0.59865 0.29528,0.89761 0.0984,0.29896 0.19686,0.59769 0.29529,0.89616 0.0984,0.29846 0.19686,0.59668 0.29528,0.89463 0.0984,0.29797 0.19684,0.59568 0.29528,0.89312 0.0984,0.29743 0.19685,0.59462 0.29529,0.89153 0.0984,0.2969 0.19684,0.59355 0.29528,0.88992 0.0984,0.29635 0.19685,0.59245 0.29527,0.88827 0.0984,0.2958 0.19688,0.59135 0.29529,0.8866 0.0984,0.29524 0.19687,0.5902 0.29529,0.88487 0.0984,0.29467 0.19686,0.58905 0.29529,0.88314 0.0984,0.29407 0.19685,0.58786 0.29529,0.88132 0.0984,0.2935 0.19686,0.58667 0.29527,0.87953 0.0984,0.29288 0.19687,0.58543 0.29528,0.87767 0.0984,0.29225 0.19686,0.58417 0.29529,0.87577 0.0984,0.29163 0.19685,0.5829 0.29529,0.87386 0.0984,0.29095 0.19684,0.5816 0.29529,0.87189 0.0984,0.29031 0.19685,0.58028 0.29528,0.86991 0.0984,0.28963 0.19685,0.57892 0.29529,0.86787 0.0984,0.28894 0.19685,0.57755 0.29527,0.86581 0.0984,0.28826 0.19686,0.57616 0.29529,0.86372 0.0984,0.28754 0.19685,0.57473 0.29528,0.86156 0.0984,0.28685 0.19687,0.57333 0.29528,0.85944 0.0984,0.2861 0.19687,0.57184 0.29529,0.8572 0.0984,0.28537 0.19686,0.57038 0.29529,0.855 0.0984,0.28461 0.19685,0.56886 0.29529,0.85272 0.0984,0.28386 0.19686,0.56732 0.29529,0.85041 0.0984,0.28308 0.19684,0.56578 0.29528,0.84808 0.0984,0.28231 0.19685,0.56421 0.29528,0.84572 0.0984,0.28151 0.19685,0.56261 0.29528,0.84332 0.0984,0.2807 0.19685,0.561 0.29528,0.84088 0.0984,0.27988 0.19687,0.55936 0.29528,0.83841 0.0984,0.27905 0.19687,0.55769 0.29529,0.83592 0.0984,0.27821 0.19687,0.55601 0.29528,0.83337 0.0984,0.27738 0.19686,0.55432 0.29531,0.83081 0.0984,0.27651 0.19684,0.5526 0.29528,0.82823 0.0984,0.27562 0.19685,0.55081 0.29527,0.82557 0.0984,0.27474 0.19686,0.54907 0.29528,0.82292 0.0984,0.27386 0.19686,0.54727 0.29528,0.82022 0.0984,0.27294 0.19686,0.54545 0.2953,0.81747 0.0984,0.27206 0.19685,0.54363 0.29528,0.81474 0.0984,0.27111 0.19686,0.54175 0.29529,0.81194 0.0984,0.27017 0.19685,0.53988 0.29527,0.8091 0.0984,0.26923 0.19686,0.53797 0.2953,0.80624 0.0984,0.26828 0.19684,0.53605 0.29528,0.80335 0.0984,0.2673 0.19685,0.53412 0.29528,0.80043 0.0984,0.26632 0.19686,0.53215 0.29529,0.79747 0.0984,0.26535 0.19686,0.53017 0.29528,0.7945 0.0984,0.26432 0.19686,0.52815 0.29528,0.79148 0.0984,0.26333 0.19687,0.52614 0.29529,0.78842 0.0984,0.26229 0.19685,0.52408 0.29529,0.78535 0.0984,0.26127 0.19685,0.52201 0.29528,0.78225 0.0984,0.26021 0.19686,0.51991 0.29529,0.77909 0.0984,0.25917 0.19685,0.51781 0.29527,0.77591 0.0984,0.2581 0.19687,0.51569 0.29529,0.77273 0.0984,0.25702 0.19685,0.51353 0.29529,0.76948 0.0984,0.25595 0.19686,0.51137 0.29528,0.76623 0.0984,0.25485 0.19686,0.50915 0.29529,0.76293 0.0984,0.25375 0.19685,0.50695 0.29527,0.75959 0.0984,0.25264 0.19686,0.50473 0.29529,0.75625 0.0984,0.25152 0.19685,0.50247 0.29529,0.75287 0.0984,0.25039 0.19686,0.50021 0.29528,0.74945 0.0984,0.24925 0.19686,0.4979 0.29529,0.746 0.0984,0.24808 0.19686,0.4956 0.29529,0.74253 0.0984,0.24692 0.19685,0.49327 0.29529,0.73902 0.0984,0.24577 0.19685,0.49093 0.29527,0.7355 0.0984,0.24457 0.19686,0.48855 0.29529,0.73194 0.0984,0.24337 0.19684,0.48617 0.29528,0.72835 0.0984,0.24218 0.19685,0.48376 0.29528,0.72472 0.0984,0.24097 0.19685,0.48133 0.29529,0.72108 0.0984,0.23975 0.19687,0.47888 0.29528,0.7174 0.0984,0.23852 0.19687,0.47643 0.29529,0.71369 0.0984,0.23729 0.19687,0.47394 0.29528,0.70999 0.0984,0.23602 0.19686,0.47142 0.2953,0.70619 0.0984,0.23478 0.19685,0.46891 0.29528,0.70242 0.0984,0.2335 0.19684,0.46637 0.29528,0.6986 0.0984,0.23222 0.19684,0.46382 0.29528,0.69474 0.0984,0.23095 0.19685,0.46124 0.29528,0.69089 0.0984,0.22965 0.19685,0.45865 0.29529,0.68699 0.0984,0.22833 0.19686,0.45603 0.29528,0.68305 0.0984,0.22703 0.19687,0.45339 0.29529,0.67911 0.0984,0.2257 0.19687,0.45075 0.29528,0.67513 0.0984,0.22437 0.19687,0.44807 0.29528,0.6711 0.0984,0.22303 0.19686,0.44541 0.2953,0.6671 0.0984,0.22168 0.19684,0.44269 0.29528,0.66301 0.0984,0.22034 0.19684,0.43998 0.29528,0.65894 0.0984,0.21897 0.19685,0.43725 0.29528,0.65482 0.0984,0.2176 0.19685,0.43451 0.2953,0.6507 0.0984,0.21621 0.19685,0.43171 0.29527,0.64653 0.0984,0.21481 0.19686,0.42892 0.29529,0.64233 0.0984,0.21342 0.19686,0.42612 0.29528,0.63812 0.0984,0.212 0.19686,0.4233 0.29528,0.63388 0.0984,0.21058 0.19686,0.42047 0.29529,0.62962 0.0984,0.20915 0.19686,0.4176 0.29529,0.62533 0.0984,0.20772 0.19685,0.41474 0.29528,0.62102 0.0984,0.20626 0.19686,0.41182 0.29528,0.61666 0.0984,0.20483 0.19686,0.40894 0.2953,0.6123 0.0984,0.20339 0.19685,0.40603 0.29528,0.60793 0.0984,0.20191 0.19685,0.40308 0.29528,0.60351 0.0984,0.20044 0.19685,0.40012 0.29528,0.59908 0.0984,0.19894 0.19686,0.39716 0.29528,0.59461 0.0984,0.19746 0.19686,0.39416 0.29529,0.59014 0.0984,0.19595 0.19686,0.39116 0.29528,0.58562 0.0984,0.19444 0.19686,0.38816 0.29529,0.58108 0.0984,0.19294 0.19687,0.38514 0.29528,0.57655 0.0984,0.19143 0.19687,0.38208 0.29529,0.57199 0.0984,0.18987 0.19686,0.379 0.29529,0.56736 0.0984,0.18835 0.19685,0.37593 0.29529,0.56275 0.0984,0.1868 0.19683,0.37284 0.29528,0.5581 0.0984,0.18526 0.19685,0.36975 0.29528,0.55345 0.0984,0.18369 0.19685,0.36661 0.29528,0.54874 0.0984,0.18215 0.19686,0.3635 0.29527,0.54406 0.0985,0.18056 0.19687,0.36033 0.2953,0.53932 0.0984,0.17898 0.19685,0.35716 0.29528,0.53456 0.0984,0.1774 0.19688,0.35399 0.29529,0.52981 0.0984,0.17579 0.19686,0.35079 0.29529,0.52499 0.0984,0.17421 0.19685,0.3476 0.29528,0.52019 0.0984,0.17259 0.19685,0.34438 0.29529,0.51534 0.0984,0.17099 0.19685,0.34115 0.29528,0.51051 0.0984,0.16935 0.19685,0.3379 0.29528,0.50562 0.0984,0.16773 0.19686,0.33463 0.29528,0.50072 0.0984,0.16609 0.19686,0.33138 0.29528,0.49582 0.0984,0.16445 0.19686,0.32808 0.2953,0.49088 0.0984,0.1628 0.19686,0.32478 0.29528,0.48592 0.0984,0.16115 0.19686,0.32147 0.29529,0.48096 0.0984,0.15948 0.19686,0.31814 0.29528,0.47595 0.0984,0.15783 0.19685,0.3148 0.29528,0.47094 0.0984,0.15616 0.19686,0.31147 0.29529,0.46594 0.0984,0.15446 0.19685,0.30808 0.29528,0.46087 0.0984,0.15278 0.19686,0.30471 0.29528,0.4558 0.0984,0.15108 0.19686,0.30134 0.29528,0.45071 0.0984,0.1494 0.19686,0.29794 0.2953,0.44563 0.0984,0.14769 0.19685,0.29452 0.29529,0.44049 0.0984,0.14598 0.19684,0.2911 0.29529,0.43537 0.0984,0.14426 0.19685,0.28765 0.29527,0.4302 0.0984,0.14254 0.19686,0.28422 0.29528,0.42503 0.0984,0.14082 0.19685,0.28078 0.29528,0.41985 0.0984,0.13908 0.19686,0.2773 0.29529,0.41465 0.0984,0.13733 0.19685,0.27381 0.29529,0.40941 0.0984,0.13561 0.19686,0.27033 0.29527,0.40418 0.0984,0.13386 0.19687,0.26684 0.2953,0.39892 0.0984,0.13212 0.19686,0.26333 0.29528,0.39367 0.0984,0.13035 0.19685,0.2598 0.29529,0.38838 0.0984,0.12857 0.19686,0.25627 0.29528,0.38307 0.0984,0.12681 0.19686,0.25273 0.29528,0.37776 0.0984,0.12503 0.19686,0.24917 0.29528,0.37244 0.0984,0.12324 0.19686,0.24561 0.29529,0.36707 0.0984,0.12148 0.19685,0.24205 0.29529,0.36173 0.0984,0.11967 0.19685,0.23847 0.29528,0.35634 0.0984,0.1179 0.19686,0.23487 0.29529,0.35098 0.0984,0.11607 0.19686,0.23127 0.29528,0.34556 0.0984,0.11429 0.19686,0.22766 0.29528,0.34014 0.0984,0.11248 0.19686,0.22405 0.29529,0.33471 0.0984,0.11068 0.19686,0.22043 0.29528,0.32928 0.0984,0.10884 0.19686,0.21679 0.29529,0.32382 0.0984,0.10703 0.19686,0.21314 0.29528,0.31836 0.0984,0.10518 0.19685,0.2095 0.2953,0.31287 0.0984,0.10337 0.19683,0.20582 0.29527,0.30738 0.0984,0.10153 0.19686,0.20215 0.29529,0.30186 0.0984,0.0997 0.19685,0.19849 0.29527,0.29636 0.0985,0.0978 0.19687,0.1948 0.29528,0.29082 0.0985,0.096 0.19687,0.19112 0.2953,0.28528 0.0984,0.0942 0.19686,0.18743 0.29528,0.27974 0.0984,0.0923 0.19687,0.18371 0.29529,0.27417 0.0984,0.0904 0.19686,0.18 0.29528,0.2686 0.0984,0.0885 0.19685,0.17627 0.29529,0.26302 0.0984,0.0868 0.19684,0.17255 0.29529,0.25743 0.0984,0.0849 0.19684,0.16879 0.29528,0.25181 0.0984,0.083 0.19685,0.16508 0.29529,0.24619 0.0984,0.0811 0.19685,0.16132 0.29526,0.24058 0.0985,0.0792 0.19687,0.15756 0.29529,0.23494 0.0984,0.0774 0.19687,0.15381 0.29529,0.22929 0.0984,0.0755 0.19686,0.15005 0.29529,0.22365 0.0984,0.0737 0.19686,0.14628 0.29528,0.21798 0.0984,0.0718 0.19686,0.1425 0.29528,0.21231 0.0984,0.0698 0.19686,0.13872 0.29529,0.20664 0.0984,0.0679 0.19686,0.13492 0.29529,0.20095 0.0984,0.0661 0.19684,0.13112 0.29529,0.19528 0.0984,0.0641 0.19685,0.1273 0.29528,0.18953 0.0984,0.0622 0.19685,0.12352 0.29528,0.18385 0.0984,0.0603 0.19686,0.11972 0.29527,0.17813 0.0985,0.0584 0.19687,0.1159 0.2953,0.17241 0.0984,0.0565 0.19684,0.11206 0.29528,0.16667 0.0984,0.0546 0.19686,0.10825 0.29528,0.16093 0.0984,0.0527 0.19687,0.10443 0.29529,0.15519 0.0984,0.0508 0.19687,0.10059 0.29529,0.14946 0.0984,0.0488 0.19685,0.0967 0.29529,0.14368 0.0984,0.0469 0.19686,0.0929 0.29528,0.13792 0.0984,0.045 0.19685,0.0891 0.29529,0.13215 0.0984,0.0432 0.19684,0.0852 0.29528,0.1264 0.0984,0.0412 0.19684,0.0813 0.29528,0.1206 0.0984,0.0392 0.19684,0.0776 0.29528,0.11483 0.0984,0.0373 0.19686,0.0738 0.29528,0.10904 0.0985,0.0354 0.19687,0.0698 0.29529,0.10325 0.0984,0.0334 0.19687,0.066 0.29528,0.0975 0.0984,0.0316 0.19687,0.062 0.2953,0.0916 0.0984,0.0296 0.19686,0.0582 0.29528,0.0859 0.0984,0.0276 0.19685,0.0544 0.29528,0.0801 0.0984,0.0258 0.19685,0.0505 0.29529,0.0742 0.0984,0.0238 0.19685,0.0466 0.29528,0.0685 0.0984,0.0219 0.19684,0.0427 0.29528,0.0626 0.0984,0.0199 0.19685,0.0389 0.29528,0.0568 0.0984,0.0179 0.19687,0.0349 0.2953,0.051 0.0984,0.016 0.19686,0.031 0.29527,0.0451 0.0984,0.014 0.19687,0.0272 0.29529,0.0393 0.0984,0.0122 0.19686,0.0233 0.29529,0.0336 0.0984,0.0102 0.19685,0.0194 0.29528,0.0277 0.0984,0.008 0.19685,0.0155 0.29529,0.0218 0.0984,0.007 0.19685,0.0118 0.29527,0.016 0.0984,0.004 0.19686,0.008 0.29529,0.0102 0.0984,0.002 0.19686,0.004 0.29529,0.004 0.0984,4.9e-4 0.19685,0 0.29529,-9.2e-4 0.0984,-9e-4 0.19686,-0.004 0.29528,-0.007 0.0984,-0.004 0.19686,-0.008 0.29528,-0.0131 0.0984,-0.005 0.19685,-0.0117 0.29529,-0.0189 0.0984,-0.007 0.19685,-0.0155 0.29528,-0.0248 0.0984,-0.009 0.19685,-0.0194 0.29528,-0.0306 0.0984,-0.0112 0.19686,-0.0233 0.29528,-0.0364 0.0984,-0.0131 0.19686,-0.0272 0.29529,-0.0423 0.0984,-0.015 0.19686,-0.0312 0.29529,-0.0481 0.0984,-0.017 0.19686,-0.0349 0.29528,-0.0538 0.0984,-0.0188 0.19686,-0.0389 0.29529,-0.0596 0.0984,-0.0209 0.19686,-0.0427 0.29528,-0.0655 0.0984,-0.0228 0.19685,-0.0465 0.29529,-0.0713 0.0984,-0.0248 0.19685,-0.0505 0.29528,-0.0772 0.0984,-0.0267 0.19685,-0.0544 0.29529,-0.0829 0.0984,-0.0286 0.19686,-0.0581 0.29527,-0.0887 0.0984,-0.0306 0.19686,-0.062 0.29528,-0.0946 0.0984,-0.0325 0.19687,-0.066 0.2953,-0.10035 0.0984,-0.0344 0.19686,-0.0698 0.29529,-0.10615 0.0984,-0.0362 0.19684,-0.0736 0.29528,-0.11194 0.0984,-0.0383 0.19686,-0.0775 0.29528,-0.11771 0.0984,-0.0402 0.19686,-0.0813 0.29529,-0.1235 0.0984,-0.0422 0.19686,-0.0851 0.29527,-0.12927 0.0984,-0.044 0.19686,-0.0891 0.2953,-0.13505 0.0984,-0.0459 0.19684,-0.0929 0.29528,-0.1408 0.0984,-0.0479 0.19686,-0.0968 0.29528,-0.14656 0.0984,-0.0499 0.19686,-0.1006 0.2953,-0.15233 0.0984,-0.0518 0.19684,-0.10442 0.29527,-0.15807 0.0984,-0.0536 0.19685,-0.10823 0.2953,-0.1638 0.0984,-0.0556 0.19684,-0.11206 0.29527,-0.16954 0.0984,-0.0576 0.19686,-0.11587 0.29528,-0.17526 0.0984,-0.0593 0.19687,-0.11971 0.29528,-0.18098 0.0984,-0.0612 0.19687,-0.12352 0.29528,-0.18672 0.0984,-0.0632 0.19687,-0.12731 0.2953,-0.1924 0.0984,-0.0651 0.19686,-0.13111 0.29528,-0.1981 0.0984,-0.0669 0.19686,-0.13491 0.2953,-0.2038 0.0984,-0.0688 0.19684,-0.13869 0.29528,-0.20948 0.0984,-0.0708 0.19684,-0.14248 0.29528,-0.21515 0.0984,-0.0727 0.19685,-0.14625 0.29528,-0.2208 0.0984,-0.0745 0.19685,-0.15005 0.29527,-0.22648 0.0985,-0.0764 0.19687,-0.1538 0.29529,-0.23213 0.0984,-0.0783 0.19687,-0.15756 0.29528,-0.23776 0.0985,-0.0802 0.19687,-0.16131 0.29529,-0.24338 0.0984,-0.0821 0.19687,-0.16506 0.2953,-0.24901 0.0984,-0.0839 0.19685,-0.16881 0.29529,-0.25462 0.0984,-0.0858 0.19686,-0.17255 0.29528,-0.26022 0.0984,-0.0876 0.19685,-0.17628 0.29528,-0.2658 0.0984,-0.0895 0.19684,-0.17999 0.29528,-0.27138 0.0984,-0.0914 0.19685,-0.18372 0.29529,-0.27696 0.0984,-0.0932 0.19684,-0.18742 0.29529,-0.28252 0.0984,-0.0951 0.19685,-0.19111 0.29526,-0.28806 0.0984,-0.097 0.19687,-0.1948 0.29529,-0.29358 0.0984,-0.0987 0.19686,-0.19849 0.29529,-0.29912 0.0985,-0.10062 0.19686,-0.20216 0.2953,-0.30463 0.0984,-0.10246 0.19686,-0.20584 0.29527,-0.31012 0.0984,-0.10429 0.19687,-0.20949 0.29528,-0.31561 0.0984,-0.10611 0.19687,-0.21315 0.29529,-0.32109 0.0984,-0.10795 0.19686,-0.21678 0.29529,-0.32654 0.0984,-0.10977 0.19684,-0.22044 0.29529,-0.332 0.0984,-0.11158 0.19685,-0.22405 0.29528,-0.33744 0.0984,-0.11337 0.19684,-0.22766 0.29528,-0.34285 0.0984,-0.11519 0.19686,-0.23128 0.29528,-0.34827 0.0985,-0.11698 0.19686,-0.23486 0.29529,-0.35365 0.0984,-0.11879 0.19685,-0.23848 0.29528,-0.35904 0.0984,-0.12058 0.19687,-0.24205 0.29528,-0.36441 0.0984,-0.12236 0.19687,-0.24562 0.29529,-0.36976 0.0984,-0.12415 0.19687,-0.24916 0.29528,-0.37509 0.0984,-0.12593 0.19686,-0.25274 0.2953,-0.38044 0.0984,-0.12768 0.19684,-0.25626 0.29528,-0.3857 0.0984,-0.12947 0.19684,-0.25983 0.29529,-0.39103 0.0984,-0.13122 0.19684,-0.26332 0.29527,-0.3963 0.0984,-0.13297 0.19686,-0.26683 0.29528,-0.40156 0.0984,-0.13472 0.19686,-0.27033 0.2953,-0.40681 0.0984,-0.13646 0.19685,-0.27381 0.29527,-0.41202 0.0984,-0.13822 0.19687,-0.2773 0.29529,-0.41725 0.0984,-0.13996 0.19687,-0.28076 0.29528,-0.42244 0.0984,-0.14168 0.19686,-0.28422 0.29529,-0.42762 0.0984,-0.14342 0.19685,-0.28767 0.29529,-0.43278 0.0984,-0.14514 0.19684,-0.29111 0.29528,-0.43794 0.0984,-0.14683 0.19686,-0.29452 0.29529,-0.44306 0.0984,-0.14853 0.19686,-0.29793 0.29527,-0.44817 0.0984,-0.15024 0.19686,-0.30133 0.29529,-0.45327 0.0984,-0.15192 0.19686,-0.3047 0.29529,-0.45833 0.0984,-0.15363 0.19685,-0.30811 0.29529,-0.4634 0.0984,-0.15531 0.19685,-0.31145 0.29527,-0.46844 0.0984,-0.15698 0.19686,-0.3148 0.29528,-0.47346 0.0984,-0.15864 0.19686,-0.31812 0.29529,-0.47845 0.0984,-0.16032 0.19685,-0.32147 0.29529,-0.48344 0.0984,-0.16197 0.19685,-0.32478 0.29529,-0.48841 0.0984,-0.16362 0.19686,-0.32806 0.29528,-0.49335 0.0984,-0.16526 0.19686,-0.33135 0.29528,-0.49825 0.0984,-0.16692 0.19687,-0.33465 0.29528,-0.5032 0.0984,-0.16854 0.19686,-0.3379 0.2953,-0.50806 0.0984,-0.17016 0.19684,-0.34115 0.29528,-0.51292 0.0984,-0.17177 0.19685,-0.34437 0.29528,-0.51777 0.0984,-0.17341 0.19685,-0.3476 0.29528,-0.5226 0.0984,-0.17501 0.19686,-0.35081 0.29529,-0.52742 0.0984,-0.17658 0.19685,-0.35398 0.29529,-0.53217 0.0984,-0.17818 0.19686,-0.35718 0.29528,-0.53694 0.0984,-0.17978 0.19686,-0.36034 0.29529,-0.5417 0.0984,-0.18134 0.19685,-0.36347 0.29527,-0.5464 0.0984,-0.18291 0.19686,-0.36662 0.29529,-0.5511 0.0984,-0.18449 0.19685,-0.36973 0.29529,-0.55577 0.0984,-0.18604 0.19686,-0.37286 0.29528,-0.56045 0.0984,-0.18757 0.19685,-0.37592 0.29528,-0.56506 0.0984,-0.18911 0.19687,-0.37901 0.29529,-0.56966 0.0984,-0.19068 0.19686,-0.38208 0.2953,-0.57425 0.0984,-0.19219 0.19684,-0.38513 0.29527,-0.57884 0.0984,-0.19368 0.19686,-0.38814 0.29528,-0.58335 0.0984,-0.19522 0.19685,-0.39117 0.29529,-0.58788 0.0984,-0.19672 0.19685,-0.39417 0.29527,-0.59238 0.0985,-0.19822 0.19686,-0.39715 0.29529,-0.59686 0.0984,-0.19967 0.19686,-0.40011 0.29528,-0.60128 0.0984,-0.20118 0.19687,-0.40309 0.29529,-0.60572 0.0984,-0.20264 0.19688,-0.40601 0.29529,-0.61013 0.0984,-0.20408 0.19686,-0.40893 0.29529,-0.61448 0.0984,-0.20556 0.19685,-0.41184 0.29529,-0.61885 0.0984,-0.20702 0.19684,-0.41474 0.29528,-0.62318 0.0984,-0.20845 0.19684,-0.41759 0.29529,-0.62746 0.0984,-0.20988 0.19684,-0.42046 0.29527,-0.63176 0.0984,-0.21129 0.19685,-0.4233 0.29528,-0.63601 0.0984,-0.2127 0.19686,-0.42612 0.29528,-0.64022 0.0984,-0.21411 0.19686,-0.42893 0.29529,-0.64444 0.0984,-0.21551 0.19688,-0.43172 0.29529,-0.64861 0.0984,-0.21689 0.19687,-0.43449 0.29528,-0.65276 0.0984,-0.21828 0.19686,-0.43725 0.29529,-0.65688 0.0984,-0.21964 0.19686,-0.43998 0.29529,-0.66099 0.0984,-0.221 0.19684,-0.4427 0.29528,-0.66504 0.0984,-0.22237 0.19685,-0.44541 0.29528,-0.66912 0.0984,-0.2237 0.19685,-0.44808 0.29529,-0.67312 0.0984,-0.22505 0.19685,-0.45076 0.29527,-0.67712 0.0984,-0.22636 0.19686,-0.45339 0.29529,-0.68108 0.0984,-0.22769 0.19686,-0.45603 0.29529,-0.68502 0.0984,-0.22901 0.19686,-0.45865 0.29528,-0.68895 0.0984,-0.23029 0.19686,-0.46124 0.29529,-0.69282 0.0984,-0.23159 0.19686,-0.46382 0.29529,-0.69668 0.0984,-0.23287 0.19685,-0.46638 0.29528,-0.70051 0.0984,-0.23413 0.19687,-0.4689 0.29528,-0.70432 0.0984,-0.2354 0.19685,-0.47143 0.29529,-0.70808 0.0984,-0.23666 0.19684,-0.47393 0.29528,-0.71184 0.0984,-0.2379 0.19685,-0.47642 0.2953,-0.71556 0.0984,-0.23912 0.19684,-0.47888 0.29528,-0.71924 0.0984,-0.24036 0.19685,-0.48133 0.29527,-0.72289 0.0984,-0.24159 0.19686,-0.48377 0.29529,-0.72654 0.0984,-0.2428 0.19686,-0.48618 0.29528,-0.73015 0.0984,-0.24397 0.19686,-0.48855 0.29529,-0.73373 0.0984,-0.24516 0.19686,-0.49092 0.29528,-0.73726 0.0984,-0.24634 0.19687,-0.49328 0.29528,-0.74078 0.0984,-0.24751 0.19686,-0.4956 0.29529,-0.74428 0.0984,-0.24867 0.19686,-0.49791 0.29529,-0.74773 0.0984,-0.24982 0.19684,-0.50019 0.2953,-0.75117 0.0984,-0.25094 0.19683,-0.50246 0.29527,-0.75453 0.0984,-0.2521 0.19685,-0.50474 0.29528,-0.75795 0.0984,-0.2532 0.19686,-0.50695 0.29527,-0.76125 0.0985,-0.25431 0.19687,-0.50918 0.29528,-0.7646 0.0984,-0.2554 0.19687,-0.51135 0.2953,-0.76785 0.0984,-0.2565 0.19686,-0.51353 0.29528,-0.7711 0.0984,-0.25758 0.19687,-0.51569 0.29529,-0.77433 0.0984,-0.25865 0.19686,-0.51781 0.29529,-0.77752 0.0984,-0.25968 0.19685,-0.51993 0.29529,-0.78067 0.0984,-0.26074 0.19685,-0.522 0.29528,-0.78379 0.0984,-0.26178 0.19684,-0.52408 0.29528,-0.78689 0.0984,-0.2628 0.19685,-0.52613 0.29528,-0.78995 0.0984,-0.26383 0.19686,-0.52817 0.29528,-0.79299 0.0984,-0.26482 0.19686,-0.53016 0.29529,-0.79598 0.0984,-0.26584 0.19686,-0.53216 0.29528,-0.79896 0.0984,-0.26682 0.19686,-0.53412 0.29529,-0.8019 0.0984,-0.26779 0.19687,-0.53607 0.29529,-0.80481 0.0984,-0.26875 0.19685,-0.53797 0.29528,-0.80769 0.0984,-0.26969 0.19686,-0.53986 0.29528,-0.8105 0.0984,-0.27066 0.19686,-0.54177 0.29529,-0.81334 0.0984,-0.27157 0.19685,-0.54361 0.29528,-0.81611 0.0984,-0.2725 0.19687,-0.54545 0.29528,-0.81886 0.0984,-0.2734 0.19686,-0.54727 0.29529,-0.82156 0.0984,-0.27432 0.19686,-0.54906 0.29529,-0.82425 0.0984,-0.2752 0.19684,-0.55085 0.2953,-0.82691 0.0984,-0.27606 0.19685,-0.55259 0.29527,-0.82953 0.0984,-0.27693 0.19686,-0.5543 0.29527,-0.83207 0.0984,-0.27782 0.19686,-0.55603 0.29529,-0.83467 0.0984,-0.27864 0.19686,-0.5577 0.29529,-0.83717 0.0984,-0.27947 0.19685,-0.55935 0.29529,-0.83965 0.0984,-0.2803 0.19686,-0.561 0.29527,-0.8421 0.0984,-0.28111 0.19686,-0.56261 0.29529,-0.84452 0.0984,-0.2819 0.19686,-0.56421 0.29528,-0.84691 0.0984,-0.28269 0.19686,-0.56577 0.2953,-0.84925 0.0984,-0.28348 0.19684,-0.56733 0.29528,-0.85157 0.0984,-0.28424 0.19686,-0.56886 0.29528,-0.85386 0.0984,-0.285 0.19686,-0.57038 0.29529,-0.85611 0.0984,-0.28573 0.19686,-0.57184 0.29527,-0.85832 0.0984,-0.28648 0.19686,-0.5733 0.2953,-0.86051 0.0984,-0.28719 0.19685,-0.57474 0.29528,-0.86265 0.0984,-0.2879 0.19685,-0.57616 0.29529,-0.86475 0.0984,-0.28861 0.19685,-0.57757 0.29527,-0.86685 0.0984,-0.2893 0.19687,-0.57892 0.29528,-0.8689 0.0985,-0.28995 0.19687,-0.58026 0.2953,-0.87089 0.0984,-0.29063 0.19686,-0.58161 0.29528,-0.87289 0.0984,-0.29128 0.19686,-0.58288 0.29529,-0.87482 0.0984,-0.29192 0.19686,-0.58416 0.29528,-0.87673 0.0984,-0.29254 0.19686,-0.58541 0.29529,-0.87859 0.0984,-0.29317 0.19684,-0.58665 0.29529,-0.88043 0.0984,-0.29379 0.19683,-0.58786 0.29527,-0.88225 0.0984,-0.29437 0.19685,-0.58905 0.29528,-0.884 0.0984,-0.29498 0.19687,-0.59022 0.29528,-0.88574 0.0985,-0.29554 0.19687,-0.59135 0.29529,-0.88745 0.0984,-0.29608 0.19687,-0.59246 0.29529,-0.88909 0.0984,-0.29665 0.19686,-0.59357 0.29529,-0.89074 0.0984,-0.29717 0.19686,-0.59461 0.29528,-0.89232 0.0984,-0.2977 0.19686,-0.59567 0.29529,-0.89388 0.0984,-0.29821 0.19684,-0.59669 0.29528,-0.89541 0.0984,-0.29871 0.19684,-0.59767 0.29528,-0.89688 0.0984,-0.2992 0.19684,-0.59866 0.29529,-0.89833 0.0984,-0.29969 0.19686,-0.59961 0.29528,-0.89978 0.0984,-0.30013 0.19686,-0.60053 0.29528,-0.90112 0.0984,-0.3006 0.19687,-0.60144 0.29528,-0.90248 0.0984,-0.30105 0.19687,-0.60231 0.2953,-0.90379 0.0984,-0.30146 0.19686,-0.60317 0.29528,-0.90505 0.0984,-0.3019 0.19686,-0.60401 0.29528,-0.9063 0.0984,-0.30231 0.19686,-0.60482 0.29529,-0.9075 0.0984,-0.30269 0.19686,-0.6056 0.29528,-0.90867 0.0984,-0.30308 0.19684,-0.60633 0.2953,-0.90979 0.0984,-0.30345 0.19685,-0.60709 0.29528,-0.91089 0.0984,-0.30381 0.19685,-0.60778 0.29529,-0.91194 0.0984,-0.30416 0.19685,-0.60849 0.29527,-0.91296 0.0984,-0.30451 0.19685,-0.60914 0.29528,-0.91396 0.0984,-0.30481 0.19685,-0.60978 0.29529,-0.9149 0.0984,-0.30512 0.19686,-0.6104 0.29528,-0.91582 0.0984,-0.30541 0.19686,-0.61097 0.29528,-0.91668 0.0984,-0.30571 0.19687,-0.61155 0.29528,-0.91753 0.0984,-0.30597 0.19687,-0.61209 0.29531,-0.91833 0.0984,-0.30625 0.19685,-0.6126 0.29528,-0.9191 0.0984,-0.30648 0.19686,-0.6131 0.29529,-0.91983 0.0984,-0.30673 0.19684,-0.61358 0.29528,-0.92053 0.0984,-0.30695 0.19684,-0.61402 0.29527,-0.92119 0.0984,-0.30717 0.19685,-0.61444 0.29529,-0.9218 0.0984,-0.30738 0.19685,-0.61484 0.29527,-0.92239 0.0984,-0.30757 0.19687,-0.61521 0.29529,-0.92295 0.0984,-0.30773 0.19687,-0.61556 0.29528,-0.92346 0.0984,-0.3079 0.19688,-0.61587 0.2953,-0.92393 0.0984,-0.30805 0.19687,-0.61616 0.29529,-0.92437 0.0984,-0.30819 0.19685,-0.61644 0.29528,-0.92477 0.0984,-0.30832 0.19685,-0.61669 0.29529,-0.92514 0.0984,-0.30842 0.19685,-0.61693 0.29528,-0.92547 0.0984,-0.30853 0.19684,-0.61713 0.29527,-0.92576 0.0984,-0.30863 0.19686,-0.61731 0.29529,-0.92601 0.0984,-0.30872 0.19685,-0.61747 0.29529,-0.92624 0.0984,-0.30879 0.19686,-0.61761 0.29528,-0.92644 0.0984,-0.30883 0.19687,-0.61769 0.29528,-0.92656 0.0984,-0.30888 0.19687,-0.61777 0.29529,-0.92669 0.0984,-0.30889 0.19686,-0.61781 0.29529,-0.92674 0.0984,-0.30892 0.19684,-0.61787 0.29529,-0.92679"
       style="opacity:1;fill:#b1b1b1;fill-opacity:1;stroke:#cc0000;stroke-width:5.8315177;stroke-linecap:butt;stroke-linejoin:miter;stroke-miterlimit:4;stroke-dasharray:11.66303458, 34.98910375;stroke-dashoffset:0;stroke-opacity:1"
       inkscape:connector-curvature="0" />
    <path
       d="m 260.75605,114.93605 0,300.54441 m 50,-300.54441 0,300.54441 m 50,-300.54441 0,300.54441 m 50,-300.54441 0,300.54441 m 50,-300.54441 0,300.54441 m 50,-300.54441 0,300.54441 m 50,-300.54441 0,300.54441 m -300,-300.54441 300.54549,0 m -300.54549,50 300.54549,0 m -300.54549,50 300.54549,0 m -300.54549,50 300.54549,0 m -300.54549,50 300.54549,0 m -300.54549,50 300.54549,0 m -300.54549,50 300.54549,0"
       style="fill:none;fill-opacity:0.75;fill-rule:evenodd;stroke:#000000;stroke-width:0.1pt;stroke-linecap:butt;stroke-linejoin:miter;stroke-opacity:1"
       id="path4372"
       inkscape:connector-curvature="0" />
  </g>
</svg>
